<?xml version="1.0" encoding="UTF-8" standalone="no" ?>
<svg
  width="120px"
  height="120px"
  viewBox="0 0 120 120"
  version="1.1"
  xmlns="http://www.w3.org/2000/svg"
  xmlns:xlink="http://www.w3.org/1999/xlink"
>
	<!-- <g stroke="none" stroke-width="1" fill="none" fill-rule="evenodd"> -->

		<!-- <path d="M120,108 C120,114.6 114.6,120 108,120 L12,120 C5.4,120 0,114.6 0,108 L0,12 C0,5.4 5.4,0 12,0 L108,0 C114.6,0 120,5.4 120,12 L120,108 L120,108 Z" id="Shape" fill="#AAAAAA" /> -->
		<!-- <path d="M77.7383308,20 L61.1640113,20 L44.7300055,63.2000173 L56.0543288,63.2000173 L40,99.623291 L72.7458388,54.5871812 L60.907727,54.5871812 L77.7383308,20 Z" id="Path-1" fill="#FFFFFF" /> -->
<g
    transform="translate(0.000000,96.000000) scale(0.100000,-0.100000)"
    fill="#000000"
    stroke="none"
  >
<path
      d="M398 769 c-63 -15 -152 -65 -211 -119 -65 -59 -127 -140 -127 -165 0
-42 135 -188 220 -238 55 -32 148 -57 210 -57 125 0 262 74 359 192 54 66 65
90 57 121 -9 37 -145 177 -207 214 -92 55 -206 75 -301 52z m210 -113 c50 -34
92 -112 92 -170 0 -60 -41 -140 -87 -170 -137 -90 -313 -17 -339 142 -9 54 18
130 59 169 55 53 85 64 163 61 59 -3 78 -8 112 -32z"
    />
<path
      d="M434 600 c-11 -4 -33 -22 -47 -40 -49 -58 -29 -153 39 -185 62 -29
134 -12 168 39 21 33 21 100 -1 137 -29 49 -103 72 -159 49z m80 -89 c36 -40
-15 -91 -55 -55 -25 22 -24 39 3 58 28 20 31 20 52 -3z"
    />
	</g>
</svg>
